<?xml version="1.0" standalone="no"?>
<!DOCTYPE svg PUBLIC "-//W3C//DTD SVG 20010904//EN"
 "http://www.w3.org/TR/2001/REC-SVG-20010904/DTD/svg10.dtd">
<svg version="1.0" xmlns="http://www.w3.org/2000/svg"
 width="150.000000pt" height="150.000000pt" viewBox="0 0 150.000000 150.000000"
 preserveAspectRatio="xMidYMid meet">

<g transform="translate(0.000000,150.000000) scale(0.100000,-0.100000)"
fill="#000000" stroke="none">
<path d="M616 1295 c-246 -63 -426 -293 -426 -545 0 -305 255 -560 560 -560
86 0 113 8 104 29 -4 9 -12 31 -18 49 -11 31 -12 32 -56 26 -57 -7 -172 17
-237 50 -171 86 -275 288 -244 472 51 304 372 475 646 344 113 -54 192 -143
236 -266 16 -45 21 -82 21 -157 0 -103 9 -127 48 -127 47 0 67 71 56 191 -26
282 -250 493 -536 505 -63 2 -115 -1 -154 -11z"/>
<path d="M738 853 l-3 -88 -87 -3 c-49 -1 -88 -7 -88 -12 0 -5 39 -11 88 -12
l87 -3 3 -87 c1 -49 7 -88 12 -88 5 0 11 39 12 88 l3 87 88 3 c48 1 87 7 87
12 0 5 -39 11 -87 12 l-88 3 -3 88 c-1 48 -7 87 -12 87 -5 0 -11 -39 -12 -87z"/>
<path d="M933 420 c-63 -38 -81 -120 -40 -181 28 -41 60 -59 110 -59 78 0 131
52 131 130 0 78 -53 130 -131 130 -21 0 -52 -9 -70 -20z"/>
</g>
</svg>
