<svg width="26" height="26" viewBox="0 0 26 26" fill="none" xmlns="http://www.w3.org/2000/svg">
<path d="M14.7307 12.0833C14.7307 11.5809 14.3002 11.1736 13.7692 11.1736C13.2381 11.1736 12.8076 11.5809 12.8076 12.0833V14.5091C12.8076 15.0115 13.2381 15.4188 13.7692 15.4188C14.3002 15.4188 14.7307 15.0115 14.7307 14.5091V12.0833Z" fill="black"/>
<path fill-rule="evenodd" clip-rule="evenodd" d="M15.2112 0.903608L18.3314 1.39561C19.8132 1.62923 21.0136 1.81849 21.9527 2.08299C22.9306 2.35844 23.7386 2.74432 24.3606 3.43907C24.9827 4.13381 25.2523 4.95129 25.3787 5.90921C25.5 6.82902 25.5 7.98038 25.5 9.40157V16.5984C25.5 18.0196 25.5 19.171 25.3787 20.0908C25.2523 21.0488 24.9827 21.8661 24.3606 22.5609C23.7386 23.2557 22.9306 23.6415 21.9527 23.917C21.0136 24.1815 19.8132 24.3707 18.3315 24.6043L15.2112 25.0964C13.8865 25.3053 12.7914 25.478 11.9167 25.498C10.9992 25.519 10.1487 25.3795 9.43907 24.8108C8.84004 24.3307 8.5434 23.7065 8.3879 23.0067H7.80298C6.35064 23.0067 5.16377 23.0067 4.22678 22.8876C3.24736 22.763 2.39821 22.4934 1.7204 21.8521C1.04258 21.2108 0.757603 20.4075 0.625924 19.4808C0.49995 18.5944 0.499975 17.4715 0.500001 16.0975V9.90256C0.499975 8.52854 0.49995 7.40567 0.625924 6.5192C0.757603 5.59259 1.04258 4.78922 1.7204 4.14796C2.39821 3.50668 3.24736 3.23707 4.22678 3.11249C5.16378 2.99331 6.35062 2.99334 7.80296 2.99336H8.3879C8.54339 2.29345 8.84004 1.66935 9.43907 1.18926C10.1487 0.620523 10.9992 0.481025 11.9167 0.501984C12.7914 0.521985 13.8867 0.694718 15.2112 0.903608ZM8.19231 19.4711C8.1923 20.097 8.19227 20.6695 8.20696 21.1873H7.8718C6.33371 21.1873 5.27686 21.1853 4.48303 21.0844C3.71685 20.9869 3.34117 20.8125 3.08022 20.5655C2.81927 20.3187 2.63486 19.9633 2.53185 19.2383C2.42513 18.4873 2.42308 17.4875 2.42308 16.0323V9.96769C2.42308 8.51253 2.42513 7.51266 2.53185 6.76163C2.63486 6.03676 2.81927 5.68134 3.08022 5.43446C3.34117 5.18758 3.71685 5.01311 4.48303 4.91565C5.27686 4.81469 6.33371 4.81275 7.8718 4.81275H8.20696C8.19227 5.33056 8.1923 5.90305 8.19231 6.52893V19.4711ZM11.8703 2.32085C11.175 2.30495 10.8792 2.41954 10.6821 2.5775C10.485 2.73545 10.3169 2.99264 10.2192 3.64406C10.1177 4.32064 10.1154 5.24088 10.1154 6.59798V19.402C10.1154 20.7591 10.1177 21.6794 10.2192 22.3559C10.3169 23.0074 10.485 23.2645 10.6821 23.4225C10.8792 23.5805 11.175 23.695 11.8703 23.6791C12.5923 23.6626 13.5522 23.5135 14.9671 23.2904L17.9527 22.8196C19.5119 22.5738 20.5933 22.4015 21.404 22.1733C22.1887 21.9521 22.604 21.7081 22.8933 21.3849C23.1827 21.0617 23.369 20.6342 23.4704 19.8654C23.5751 19.0714 23.5769 18.0339 23.5769 16.5384V9.46161C23.5769 7.96604 23.5751 6.92858 23.4704 6.13462C23.369 5.36586 23.1827 4.93826 22.8933 4.61508C22.604 4.29189 22.1887 4.04781 21.404 3.82674C20.5933 3.59844 19.5119 3.42624 17.9527 3.18038L14.9671 2.7096C13.5522 2.4865 12.5923 2.33735 11.8703 2.32085Z" fill="black"/>
</svg>
